<?xml version="1.0" standalone="no"?>
<!DOCTYPE svg PUBLIC "-//W3C//DTD SVG 20010904//EN"
 "http://www.w3.org/TR/2001/REC-SVG-20010904/DTD/svg10.dtd">
<svg version="1.0" xmlns="http://www.w3.org/2000/svg"
 width="512.000000pt" height="512.000000pt" viewBox="0 0 512.000000 512.000000"
 preserveAspectRatio="xMidYMid meet">

<g transform="translate(0.000000,512.000000) scale(0.100000,-0.100000)"
fill="#000000" stroke="none">
<path d="M2463 4242 c-215 -77 -271 -345 -104 -502 l48 -45 -143 -250 c-79
-138 -145 -254 -147 -259 -1 -5 -125 73 -275 173 l-272 181 30 42 c112 154 55
372 -119 452 -64 29 -178 29 -242 0 -66 -31 -114 -78 -146 -142 -23 -47 -28
-70 -28 -132 0 -112 45 -195 143 -260 l22 -15 -84 -254 c-47 -139 -88 -256
-90 -258 -3 -4 -494 323 -544 363 -2 1 10 21 28 45 110 152 58 364 -108 446
-47 23 -70 28 -132 28 -174 0 -294 -121 -295 -295 0 -62 5 -85 28 -132 31 -62
91 -121 144 -140 20 -7 36 -21 38 -33 3 -11 29 -167 59 -348 l55 -327 -35 -53
c-87 -132 -118 -384 -69 -572 36 -140 128 -262 216 -285 27 -8 40 -17 44 -33
3 -12 30 -173 60 -357 31 -184 60 -348 67 -363 23 -59 1 -57 792 -57 541 0
732 3 751 12 29 13 55 55 55 88 0 33 -26 75 -55 88 -19 9 -198 12 -699 12
l-673 0 -12 83 c-7 45 -14 90 -17 100 -5 16 86 17 1806 17 1720 0 1811 -1
1806 -17 -3 -10 -10 -55 -17 -100 l-12 -83 -673 0 c-501 0 -680 -3 -699 -12
-29 -13 -55 -55 -55 -88 0 -33 26 -75 55 -88 19 -9 210 -12 751 -12 791 0 769
-2 792 57 7 15 36 179 67 363 30 184 57 345 60 357 4 16 17 25 44 33 88 23
178 143 216 285 49 186 18 440 -69 572 l-35 53 55 327 c30 181 56 337 59 348
2 12 18 26 38 33 53 19 113 78 144 140 23 47 28 70 28 132 -1 124 -56 214
-163 267 -47 23 -70 28 -132 28 -62 0 -85 -5 -132 -28 -166 -82 -218 -294
-108 -446 18 -24 30 -44 28 -45 -21 -17 -526 -360 -534 -363 -8 -3 -42 87 -94
243 -46 136 -83 253 -84 259 -1 7 22 30 50 53 75 59 109 133 109 232 0 174
-121 295 -295 295 -55 0 -87 -6 -121 -21 -174 -80 -231 -298 -119 -452 l30
-42 -272 -181 c-150 -100 -274 -178 -275 -173 -2 5 -68 121 -147 259 l-143
250 48 45 c67 63 94 125 94 220 0 85 -21 142 -74 203 -72 81 -213 117 -318 79z
m146 -196 c67 -35 65 -143 -4 -174 -51 -23 -107 -7 -131 39 -47 91 44 182 135
135z m-1200 -200 c67 -35 65 -143 -4 -174 -51 -23 -107 -7 -131 39 -47 91 44
182 135 135z m2400 0 c67 -35 65 -143 -4 -174 -91 -41 -179 51 -131 137 26 47
84 63 135 37z m-3460 -200 c67 -35 65 -143 -4 -174 -51 -23 -107 -7 -131 39
-47 91 44 182 135 135z m4520 0 c67 -35 65 -143 -4 -174 -91 -41 -179 51 -131
137 26 47 84 63 135 37z m-1944 -727 c373 -654 377 -659 439 -659 28 0 19 -6
806 533 277 190 506 344 508 343 3 -3 -62 -404 -73 -453 -4 -16 -17 -25 -44
-33 -88 -23 -180 -145 -216 -285 -49 -188 -18 -440 69 -572 l35 -53 -20 -117
c-10 -65 -22 -128 -24 -140 l-5 -23 -1840 0 -1840 0 -5 23 c-2 12 -14 75 -24
140 l-20 118 31 45 c90 134 123 391 73 579 -38 142 -128 262 -216 285 -27 8
-40 17 -44 33 -11 51 -75 450 -72 453 1 2 230 -153 507 -343 788 -540 778
-533 806 -533 62 0 66 5 439 659 198 347 362 631 365 631 3 0 167 -284 365
-631z m-1217 290 c158 -105 291 -195 295 -199 7 -6 -248 -469 -273 -494 -6 -6
-446 282 -494 325 -7 7 170 559 180 559 2 0 134 -86 292 -191z m2092 -85 c51
-152 88 -279 84 -284 -45 -40 -488 -330 -494 -324 -19 20 -281 486 -276 492
11 11 581 391 588 391 3 1 48 -123 98 -275z m-3262 -704 c40 -60 57 -135 57
-260 0 -125 -17 -200 -58 -261 -29 -43 -45 -43 -74 0 -87 128 -78 441 14 543
21 24 33 19 61 -22z m4120 0 c40 -60 57 -135 57 -260 0 -125 -17 -200 -58
-261 -29 -43 -45 -43 -74 0 -87 128 -78 441 14 543 21 24 33 19 61 -22z"/>
<path d="M2492 2647 c-53 -17 -128 -91 -162 -160 -50 -104 -64 -176 -64 -327
0 -205 46 -345 143 -432 105 -94 210 -91 311 10 45 46 63 73 87 137 98 253 52
584 -98 719 -70 63 -137 79 -217 53z m106 -227 c40 -60 57 -135 57 -260 0
-125 -17 -200 -58 -261 -29 -43 -45 -43 -74 0 -87 128 -78 441 14 543 21 24
33 19 61 -22z"/>
<path d="M2511 1046 c-87 -48 -50 -186 49 -186 51 0 100 49 100 99 0 75 -83
124 -149 87z"/>
</g>
</svg>
